<svg xmlns="http://www.w3.org/2000/svg" width="64" height="64" viewBox="0 0 64 64"><rect x="2" y="2" width="60" height="60" rx="10" fill="#23262b" stroke="#3f4650" stroke-width="2"/><rect x="5" y="5" width="54" height="50" rx="8" fill="#ffffff" opacity="0.05"/><rect x="16.0" y="18" width="32" height="7.5" rx="2.5" fill="#e3b93c" stroke="#8a6d1c" stroke-width="1"/><rect x="17.5" y="19" width="29" height="2" rx="1" fill="#ffffff" opacity="0.28"/><path d="M 20.0 21.7 L 44.0 21.7" stroke="#8a6d1c" stroke-width="1.1"/><ellipse cx="22.0" cy="20.2" rx="2.4" ry="1.1" fill="#8a6d1c" transform="rotate(-25 22.0 20.2)"/><ellipse cx="22.0" cy="23.3" rx="2.4" ry="1.1" fill="#8a6d1c" transform="rotate(25 22.0 23.3)"/><ellipse cx="28.0" cy="20.2" rx="2.4" ry="1.1" fill="#8a6d1c" transform="rotate(-25 28.0 20.2)"/><ellipse cx="28.0" cy="23.3" rx="2.4" ry="1.1" fill="#8a6d1c" transform="rotate(25 28.0 23.3)"/><ellipse cx="34.0" cy="20.2" rx="2.4" ry="1.1" fill="#8a6d1c" transform="rotate(-25 34.0 20.2)"/><ellipse cx="34.0" cy="23.3" rx="2.4" ry="1.1" fill="#8a6d1c" transform="rotate(25 34.0 23.3)"/><ellipse cx="40.0" cy="20.2" rx="2.4" ry="1.1" fill="#8a6d1c" transform="rotate(-25 40.0 20.2)"/><ellipse cx="40.0" cy="23.3" rx="2.4" ry="1.1" fill="#8a6d1c" transform="rotate(25 40.0 23.3)"/></svg>